<?xml version="1.0" standalone="no"?>
<!DOCTYPE svg PUBLIC "-//W3C//DTD SVG 20010904//EN"
 "http://www.w3.org/TR/2001/REC-SVG-20010904/DTD/svg10.dtd">
<svg version="1.0" xmlns="http://www.w3.org/2000/svg"
 width="540.000000pt" height="540.000000pt" viewBox="0 0 540.000000 540.000000"
 preserveAspectRatio="xMidYMid meet">
<metadata>
Created by potrace 1.14, written by Peter Selinger 2001-2017
</metadata>
<g transform="translate(0.000000,540.000000) scale(0.100000,-0.100000)"
fill="#000000" stroke="none">
<path d="M4197 3864 c-1 -1 -34 -4 -73 -7 -387 -33 -743 -270 -922 -615 -46
-87 -86 -192 -77 -201 3 -3 13 -6 23 -7 93 -13 172 -38 172 -54 0 -5 -10 -31
-22 -58 l-22 -49 -45 17 c-58 22 -123 33 -137 23 -6 -5 -14 -25 -17 -45 -6
-42 -4 -43 74 -53 67 -8 135 -41 163 -78 37 -50 29 -140 -18 -194 -24 -28
-103 -62 -155 -66 -22 -2 -43 -6 -46 -9 -3 -2 6 -44 20 -92 129 -444 518 -771
980 -825 269 -31 545 36 774 187 75 49 93 65 176 147 104 104 158 178 220 303
79 157 116 317 119 507 2 105 -1 131 -25 255 -85 425 -443 786 -879 885 -72
16 -273 37 -283 29z m-380 -854 c51 -22 93 -56 93 -74 -1 -6 -23 -28 -50 -49
l-50 -38 -22 20 c-45 43 -137 39 -180 -7 -59 -62 -54 -167 9 -223 33 -28 41
-31 88 -27 32 3 64 13 83 26 l30 22 46 -37 c24 -21 45 -43 45 -50 1 -6 -13
-23 -30 -37 -131 -110 -350 -65 -432 88 -18 33 -22 57 -22 131 0 95 15 137 67
195 75 82 217 108 325 60z m522 6 c15 -8 33 -22 40 -30 19 -23 29 -19 23 9 -5
28 4 30 116 26 l27 -1 0 -265 c0 -295 8 -267 -70 -267 -74 0 -75 1 -75 28 l0
26 -31 -26 c-36 -30 -67 -40 -129 -39 -77 0 -128 20 -179 71 -146 148 -90 420
99 474 62 17 138 15 179 -6z m723 9 c43 -13 90 -58 111 -104 18 -41 20 -68 21
-238 l2 -193 -33 -1 c-18 -1 -42 -1 -53 -1 -65 0 -60 -14 -60 168 0 102 -4
174 -11 187 -27 53 -93 72 -149 44 -49 -24 -59 -64 -58 -234 0 -84 -2 -156 -5
-159 -6 -7 -127 -7 -134 -1 -5 6 -7 516 -1 522 4 4 62 7 106 6 28 -1 32 -4 32
-28 l0 -26 23 21 c45 42 137 58 209 37z"/>
<path d="M4190 2878 c-86 -58 -86 -188 -1 -245 62 -42 155 -23 196 41 20 30
26 99 13 136 -28 81 -137 116 -208 68z"/>
<path d="M1400 3150 l-35 -5 0 -275 c1 -151 5 -294 9 -317 13 -74 88 -122 186
-119 l45 2 1 57 c1 62 7 57 -72 73 -13 2 -23 13 -26 26 -2 13 -4 143 -3 291 0
232 -2 267 -15 268 -8 0 -24 1 -35 2 -11 1 -36 0 -55 -3z"/>
<path d="M1758 3152 l-27 -3 0 -354 c0 -269 3 -354 12 -357 7 -3 39 -4 72 -4
l59 1 1 71 c1 66 4 73 33 102 l31 31 67 -97 c37 -53 69 -99 71 -102 5 -5 173
-8 173 -2 0 2 -44 63 -98 135 -54 73 -101 137 -105 144 -5 7 31 56 93 127 55
63 100 117 100 120 0 2 -37 4 -82 4 l-83 0 -95 -114 c-52 -62 -97 -113 -100
-113 -3 -1 -5 91 -5 204 0 132 -3 205 -10 206 -48 3 -84 4 -107 1z"/>
<path d="M215 2975 c-94 -21 -147 -62 -187 -143 -22 -45 -23 -59 -26 -314 l-3
-268 70 0 c81 0 73 -15 73 132 l0 86 36 -21 c79 -47 239 -18 310 56 56 58 77
113 77 197 0 84 -22 142 -71 196 -64 70 -179 102 -279 79z m118 -139 c58 -24
82 -60 84 -125 2 -71 -20 -112 -74 -139 -96 -47 -203 22 -203 130 0 53 27 102
69 127 42 24 79 26 124 7z"/>
<path d="M909 2979 c-142 -22 -232 -130 -233 -279 0 -65 4 -83 29 -130 55
-100 159 -154 282 -145 143 10 251 116 261 255 9 119 -45 217 -148 267 -72 35
-121 43 -191 32z m117 -148 c98 -45 102 -198 5 -255 -62 -36 -148 -17 -187 41
-25 37 -28 125 -6 163 21 36 77 70 117 70 17 0 48 -9 71 -19z"/>
<path d="M2513 2979 c-161 -30 -251 -202 -197 -375 32 -104 138 -184 244 -184
42 0 130 30 137 46 8 22 32 17 28 -6 -2 -11 -1 -21 3 -21 18 -4 118 -5 127 -2
7 2 10 97 10 268 l0 265 -72 0 c-66 0 -72 -1 -68 -20 5 -25 -9 -25 -44 -1 -43
31 -105 42 -168 30z m148 -152 c49 -32 71 -81 65 -139 -6 -57 -28 -90 -76
-115 -37 -20 -46 -21 -101 -10 -86 17 -126 124 -81 214 37 71 127 94 193 50z"/>
<path d="M3070 2643 l0 -55 48 7 c54 8 72 20 72 46 0 23 -34 45 -82 52 l-38 6
0 -56z"/>
</g>
</svg>
